<?xml version="1.0" encoding="utf-8"?>
<!-- Generator: Adobe Illustrator 18.0.0, SVG Export Plug-In . SVG Version: 6.00 Build 0)  -->
<!DOCTYPE svg PUBLIC "-//W3C//DTD SVG 1.1//EN" "http://www.w3.org/Graphics/SVG/1.1/DTD/svg11.dtd">
<svg version="1.1" id="Layer_1" xmlns="http://www.w3.org/2000/svg" xmlns:xlink="http://www.w3.org/1999/xlink" x="0px" y="0px"
	 viewBox="0 0 262.9 314" enable-background="new 0 0 262.9 314" xml:space="preserve">
<g>
	<path fill="#020201" d="M0.1,207.9c-0.2-1.1-0.3-4.3,0.5-9c0.4-1.4,0.7-2.5,0.9-3.3c2.6-10.9,9.2-18.5,19-23.7
		c6.3-3.3,12.4-7.1,18.8-10.3c3.8-1.9,5.7-4.7,7-8.8C58.7,113,84.2,86.4,125,75.5c13.2-3.5,26.7-3,40.1-1.6c6.7,2.2,13.7,3.5,20.3,6
		c9.7,3.7,18,9.7,26.7,15c0.1,0.1,0.1,0.3,0.2,0.4c0.1,0.1,0.2,0,0.3,0c-0.2-0.1-0.4-0.2-0.6-0.4c0.1-1.6-1-2.4-2.1-3.2
		c-13-10.6-27.4-18.3-44-21.9c0.4-4.3,2.4-7.9,4.8-11.4c1.5,0,2.4,1,3.4,1.8c13.3,10.1,28.9,9,40.8-2.9c1.6-1.6,2.9-3.7,5.1-4.6
		c8.3,7.7,11.6,17.3,10.1,28.4c-1,7.8-2.4,15.5-3.9,23.1c-0.5,2.7-0.1,4.6,1.7,6.8c24.8,31.1,31.9,66.2,22.8,104.8
		c-1.3,5.3-5.1,10.8-4.2,15.6c1,5,6.3,9.1,9.5,13.7c13.4,19.5,5.7,44.9-16.3,53.2c-12.6,4.8-24.2,2-34.9-5.6
		c-0.8-2.5,1.1-3.6,2.5-4.9c6.3-6,12.3-12.2,17.1-19.4c0.7-1,2-2,0.2-4c-7.6,8.4-16.6,15-25.9,21.3c-2.6,1.2-5.1,2.4-7.7,3.6
		c-21.6,10.1-44,12.3-67.2,6.7c-5.1-1.2-10.8-5-15.1-3.7c-4.6,1.4-7.7,7.4-11.7,11.2c-8.6,8.2-18.9,11.7-30.7,9.7
		c-14.1-2.4-23.5-11-27.6-24.4c-4.2-13.7-0.1-25.8,9.8-36c7.9-8.1,7.7-8,3.2-18.4c-1.6-3.8-3.2-3.8-6.6-2.4
		c-16,6.6-33.6-0.3-41.3-15.8C2.9,213.7,1.5,211.8,0.1,207.9z M215.1,97c-0.1-0.1-0.1-0.2-0.2-0.3c0,0-0.2,0-0.2-0.1
		C214.8,96.7,215,96.8,215.1,97c0.4,0.3,0.7,0.6,1,1c0.3,0.3,0.7,0.7,1,1c0.1,0.3,0.1,0.6,0.2,1c0.1-0.1,0.3-0.2,0.4-0.2
		c-0.2-0.2-0.4-0.5-0.7-0.7c-0.3-0.3-0.7-0.7-1-1C215.8,97.6,215.4,97.3,215.1,97z M92,138.5c-0.1,7.3,1.5,12,4.7,16
		c1.3,1.6,2.1,3.1,2.2,5.3c0.6,9.7,7.5,16.3,16.7,16.3c9.4,0,16.2-6.9,16.6-16.9c0.1-1.8,0.2-3.1,1.9-4.2
		c6.8-4.2,13.6-8.3,21.5-10.3c6.6-1.7,13.4-2.5,20.1-3.7c8.5-1.6,14.2-6.3,16.2-14.9c1.8-7.8-2-16.3-9-21.2c-5.1-3.5-10.9-5-17-5
		c-23,0.1-43.7,8.1-62.5,20.7C96.7,125.1,92.3,131.9,92,138.5z M83.2,117c6.1,0.1,15-6.6,16.6-12.6c1-3.6-1.1-6.4-4.8-6.3
		c-5.4,0-14.8,7.1-16.5,12.3C77.2,114.4,79,117,83.2,117z M257.3,272c-0.2-2.2,0.6-5.1-2.3-5.9c-3-0.9-4.5,1.6-5.8,3.7
		c-1.6,2.8-2.5,5.8-2.1,9.1c0.2,1.9,0.6,3.7,2.8,4.2c2.1,0.5,3.5-0.6,4.7-2.2C256.4,278.2,257.5,275.3,257.3,272z M69.8,251.5
		c-2.6-8.6-6.1-16.7-8-25.5c-0.3-1.3-1.5-1.1-2.5-0.5c-1.3,0.8-3.6,1.1-2.7,3.4C59.8,237.1,63.8,244.9,69.8,251.5z M152.1,174.8
		c-0.3-3.3-2.1-5.3-5.4-5.2c-3.4,0.1-5,2.1-5.1,5.5c-0.1,3.2,1.5,5.1,4.7,5.1C149.8,180.2,151.8,178.3,152.1,174.8z M68,126.7
		c0,1.3-0.1,3,2.3,3.3c3,0.3,7.3-4.7,7.4-8.7c0-1.7-0.4-3.3-2.6-3.4C72.3,117.7,68.2,122.7,68,126.7z M49.2,267.4
		c-0.1-2.3-0.4-4.7-2.8-4.1c-3.9,1.1-4.5,4.9-5,8.3c-0.3,1.8,0.6,3.7,2.6,3.3C48.3,274.1,48.5,270.3,49.2,267.4z M10.6,190.9
		c3.1-1.2,5.1-3.6,5.5-7.3c0.2-1.8-0.7-3.1-2.6-2.5c-3.5,1.1-5.5,3.8-6.1,7.2C7.1,190.1,8.4,191,10.6,190.9z M166.7,176.7
		c-0.3-2.1-1.4-3.5-3.5-3.5c-2.4,0-3.6,1.6-3.6,3.8c0,2.1,1.3,3.4,3.5,3.4C165.3,180.4,166.5,178.9,166.7,176.7z M104.9,209.8
		c2.2-0.2,3.7-1.4,3.7-3.7c0-2.1-1.2-3.4-3.4-3.4c-2.4,0-3.6,1.3-3.6,3.7C101.5,208.6,102.7,209.6,104.9,209.8z M257.3,258.7
		c-0.2-1.9,0.2-4.4-2.4-4.8c-2.5-0.3-2.8,1.9-2.7,3.7c0,2.1,0,4.8,2.7,5.1C257.3,263,257.1,260.5,257.3,258.7z M145.2,192.8
		c-0.2-1.4-1.2-2.5-2.9-2.5c-2,0-3,1.3-3,3.2c0,1.7,1,2.9,2.8,2.8C144,196.2,145.1,195.1,145.2,192.8z M156.5,160.9c1.6-0.2,3-1,3-3
		c0-1.7-1-2.9-2.7-2.9c-2-0.1-3.1,1.1-3.2,3C153.4,159.7,154.5,160.6,156.5,160.9z M42,282.5c1.4-0.2,1.8-1.3,2-2.4
		c0.1-1.1,0.3-2.6-1.1-2.9c-1.8-0.3-2,1.4-2.3,2.6C40.3,281,40.7,282.1,42,282.5z M119.8,199.9c-0.2-1.2-0.8-1.9-2-1.9
		c-1.4,0-2.2,0.8-2.1,2.2c0,1.1,0.8,1.8,1.9,1.8C118.9,202,119.7,201.2,119.8,199.9z M5.7,196.8c1.5-0.3,2.2-1.4,2.3-2.8
		c0.1-0.9-0.2-1.9-1.2-1.8c-1.7,0.1-2,1.5-2.3,2.8C4.3,195.9,4.7,196.6,5.7,196.8z"/>
	<path fill="#F8D5A6" d="M92,138.5c0.3-6.6,4.7-13.3,11.5-17.9C122.4,107.9,143,100,166,99.9c6.1,0,11.9,1.5,17,5
		c7.1,4.9,10.9,13.4,9,21.2c-2,8.5-7.8,13.3-16.2,14.9c-6.7,1.2-13.5,2.1-20.1,3.7c-7.9,2-14.7,6.1-21.5,10.3
		c-1.7,1.1-1.8,2.4-1.9,4.2c-0.5,10-7.3,16.8-16.6,16.9c-9.2,0-16.1-6.6-16.7-16.3c-0.1-2.2-1-3.7-2.2-5.3
		C93.5,150.4,92,145.8,92,138.5z M132.2,136.1c0-5.3-2-8.8-6-10.8c-4.1-2-8.1-1.4-11.6,1.5c-3.4,2.8-4.9,6.6-4,11.1
		c0.6,2.9,1.5,5.4,5.5,4.8c2.4-0.4,5.1,0.3,7.1,1.7c2.8,2.1,4.5,0.7,6.3-1.3C131.4,140.8,132.3,138.3,132.2,136.1z M179.9,119
		c0-5.4-4-9.8-9.1-9.8c-5.2-0.1-9.8,4.5-9.8,9.9c0,5.4,4,9.7,9.2,9.8C175.5,128.9,179.9,124.5,179.9,119z M105.9,152.6
		c1.8-0.6,3.3-1.8,4-3.8c0.3-0.9-0.3-1.8-1.2-1.7c-2,0.2-3.9,1-4.4,3.3C104,151.5,104.4,152.5,105.9,152.6z"/>
	<path fill="#795D40" d="M170.8,58.6c0-2.1-1.6-3.2-2.7-4.6c-3-3.7-5.1-7.8-6.5-12.3c-0.9-2.9-0.8-4.7,2.7-6
		c3.9-1.4,5.9-4.9,5.7-9.1c-0.2-2.5,0.1-3.8,2.8-4.7c4.5-1.5,6.5-5.1,6.2-9.7c-0.2-2.4,0.4-3.7,2.8-4.3c2-0.5,3.9-1.7,4.6-3.6
		c1.6-4.7,5.1-4.5,8.8-4.2c23.2,2,37.3,27.2,27.1,48.2c-0.7,1.5-1.4,3-2,4.5c-2.2,1-3.5,3-5.1,4.6c-11.9,11.9-27.5,13-40.8,2.9
		C173.2,59.6,172.3,58.5,170.8,58.6z M172.1,32.9c-2.3,1.9-4.4,3.9-6.8,5.7c-1.2,0.9-1.2,1.8-0.8,3c5,14.3,18.7,27.7,37.8,21
		c12.1-4.2,19.3-13.7,20.4-26.6c1.1-11.7-3.9-21.1-13.4-27.9C204.6,4.8,199.1,3,193,2.9c-4.2-0.1-4.2,4.4-6.9,5.7
		c-5.2,2.4-5.3,5.6-1,9.2c-1.7,1.1-2.7-1.5-3.3-0.4C178.5,22.6,170.6,24.9,172.1,32.9C172.1,32.9,172.1,32.9,172.1,32.9z"/>
	<path fill="#57585A" d="M83.2,117c-4.2-0.1-6-2.6-4.7-6.6c1.7-5.3,11.1-12.3,16.5-12.3c3.7,0,5.8,2.8,4.8,6.3
		C98.1,110.4,89.3,117.1,83.2,117z"/>
	<path fill="#57585A" d="M165.1,73.9c0.2-1.3,0-2.8,0.9-4c16.5,3.5,30.9,11.3,44,21.9c1,0.8,2.2,1.6,2.1,3.2l0.1-0.1
		c-8.7-5.3-17-11.3-26.7-15C178.8,77.4,171.8,76.1,165.1,73.9z"/>
	<path fill="#57585A" d="M205.1,292.9c-2-2.3-3.4-5.2-6-7c9.2-6.3,18.3-12.9,25.9-21.3c1.8,2,0.5,3-0.2,4
		c-4.9,7.2-10.9,13.4-17.1,19.4C206.3,289.3,204.3,290.4,205.1,292.9z"/>
	<path fill="#57585A" d="M257.3,272c0.2,3.3-0.9,6.2-2.8,8.9c-1.1,1.6-2.6,2.7-4.7,2.2c-2.2-0.5-2.6-2.4-2.8-4.2
		c-0.3-3.3,0.5-6.3,2.1-9.1c1.2-2.1,2.7-4.6,5.8-3.7C258,266.9,257.1,269.8,257.3,272z"/>
	<path fill="#57585A" d="M69.8,251.5c-6-6.6-10-14.4-13.2-22.6c-0.9-2.3,1.4-2.6,2.7-3.4c0.9-0.6,2.2-0.7,2.5,0.5
		C63.6,234.8,67.2,243,69.8,251.5z"/>
	<path fill="#E9AE76" d="M152.1,174.8c-0.3,3.5-2.3,5.4-5.8,5.4c-3.2,0-4.8-1.9-4.7-5.1c0.1-3.3,1.7-5.4,5.1-5.5
		C150,169.5,151.8,171.4,152.1,174.8z"/>
	<path fill="#57585A" d="M68,126.7c0.2-4,4.4-9,7.1-8.9c2.2,0.1,2.7,1.7,2.6,3.4c-0.1,4-4.5,9-7.4,8.7C67.9,129.8,68,128.1,68,126.7
		z"/>
	<path fill="#57585A" d="M49.2,267.4c-0.8,2.9-0.9,6.8-5.2,7.6c-2,0.4-2.9-1.5-2.6-3.3c0.5-3.4,1.1-7.2,5-8.3
		C48.8,262.6,49.1,265.1,49.2,267.4z"/>
	<path fill="#57585A" d="M10.6,190.9c-2.1,0.1-3.5-0.7-3.2-2.6c0.6-3.5,2.6-6.1,6.1-7.2c1.9-0.6,2.8,0.7,2.6,2.5
		C15.7,187.2,13.7,189.6,10.6,190.9z"/>
	<path fill="#E9AE76" d="M166.7,176.7c-0.2,2.2-1.3,3.7-3.7,3.7c-2.1,0-3.5-1.3-3.5-3.4c0-2.2,1.3-3.8,3.6-3.8
		C165.2,173.2,166.4,174.6,166.7,176.7z"/>
	<path fill="#E9AE76" d="M104.9,209.8c-2.1-0.2-3.4-1.3-3.4-3.5c0-2.4,1.3-3.7,3.6-3.7c2.2,0,3.4,1.3,3.4,3.4
		C108.6,208.5,107.1,209.6,104.9,209.8z"/>
	<path fill="#57585A" d="M257.3,258.7c-0.2,1.8,0,4.3-2.5,4.1c-2.7-0.3-2.7-3-2.7-5.1c0-1.8,0.3-4.1,2.7-3.7
		C257.5,254.3,257.1,256.8,257.3,258.7z"/>
	<path fill="#E9AE76" d="M145.2,192.8c-0.1,2.3-1.2,3.4-3.1,3.5c-1.8,0.1-2.8-1.1-2.8-2.8c0-1.9,1-3.2,3-3.2
		C144,190.3,145,191.4,145.2,192.8z"/>
	<path fill="#E9AE76" d="M156.5,160.9c-2-0.3-3.1-1.2-3-3c0.1-1.9,1.2-3.1,3.2-3c1.8,0.1,2.7,1.3,2.7,2.9
		C159.4,159.9,158.1,160.7,156.5,160.9z"/>
	<path fill="#57585A" d="M42,282.5c-1.4-0.5-1.8-1.5-1.5-2.7c0.3-1.2,0.5-2.9,2.3-2.6c1.4,0.3,1.3,1.8,1.1,2.9
		C43.8,281.3,43.5,282.4,42,282.5z"/>
	<path fill="#E9AE76" d="M119.8,199.9c-0.1,1.3-0.8,2.1-2.2,2.1c-1.1,0-1.9-0.7-1.9-1.8c0-1.4,0.7-2.2,2.1-2.2
		C118.9,198,119.6,198.7,119.8,199.9z"/>
	<path fill="#57585A" d="M5.7,196.8c-1-0.3-1.4-0.9-1.2-1.8c0.3-1.3,0.7-2.8,2.3-2.8c1,0,1.3,0.9,1.2,1.8
		C7.8,195.4,7.2,196.5,5.7,196.8z"/>
	<path fill="#57585A" d="M217.1,99c0.2,0.2,0.4,0.5,0.7,0.7c-0.1,0.1-0.3,0.2-0.4,0.2C217.3,99.5,217.2,99.2,217.1,99
		C217.1,98.9,217.1,99,217.1,99z"/>
	<path fill="#57585A" d="M217.1,98.9c-0.3-0.3-0.7-0.7-1-1c0,0,0,0.1,0,0.1C216.4,98.3,216.8,98.6,217.1,98.9
		C217.1,99,217.1,98.9,217.1,98.9z"/>
	<path fill="#57585A" d="M215.1,97c0.3,0.3,0.7,0.7,1,1c0,0,0-0.1,0-0.1C215.8,97.6,215.5,97.2,215.1,97L215.1,97z"/>
	<path fill="#57585A" d="M215.1,96.9c-0.2-0.1-0.3-0.2-0.5-0.3c0.1,0,0.2,0,0.2,0.1C215,96.7,215,96.8,215.1,96.9
		C215.1,97,215.1,96.9,215.1,96.9z"/>
	<path fill="#57585A" d="M212.1,95c0.2,0.1,0.4,0.2,0.6,0.4c-0.1,0-0.3,0-0.3,0C212.2,95.2,212.2,95,212.1,95
		C212.1,94.9,212.1,95,212.1,95z"/>
	<path fill="#020201" d="M132.2,136.1c0,2.2-0.9,4.8-2.8,7c-1.8,2-3.5,3.3-6.3,1.3c-2-1.5-4.7-2.1-7.1-1.7c-4,0.6-4.9-1.9-5.5-4.8
		c-0.9-4.4,0.6-8.2,4-11.1c3.5-2.9,7.6-3.4,11.6-1.5C130.3,127.2,132.2,130.7,132.2,136.1z M117.2,132.5c0.3,0.8-1.8,2.6,1,2.3
		c2.8-0.2,5.9-0.1,6.1-4.1c0.1-2.3-1.1-3.9-3.5-3.9C117.2,127,116.8,129.6,117.2,132.5z"/>
	<path fill="#020201" d="M179.9,119c-0.1,5.5-4.4,9.9-9.8,9.8c-5.2-0.1-9.2-4.3-9.2-9.8c0-5.4,4.5-10,9.8-9.9
		C175.9,109.2,180,113.6,179.9,119z M169.6,111.6c-2.1,0.3-3.1,1.7-2.9,3.7c0.2,1.9,1.4,3,3.3,2.8c2.2-0.2,3.2-1.6,3-3.7
		C172.9,112.6,171.6,111.6,169.6,111.6z"/>
	<path fill="#FDFDFD" d="M105.9,152.6c-1.5-0.2-1.8-1.1-1.6-2.1c0.5-2.3,2.3-3.1,4.4-3.3c1-0.1,1.5,0.7,1.2,1.7
		C109.2,150.8,107.7,152.1,105.9,152.6z"/>
	<path fill="#E9AE76" d="M172.1,32.9c-1.5-8.1,6.4-10.4,9.6-15.6c0.7-1.1,1.6,1.5,3.3,0.4c-4.3-3.6-4.2-6.8,1-9.2
		c2.8-1.3,2.7-5.8,6.9-5.7c6.1,0.1,11.6,1.9,16.4,5.3c9.5,6.8,14.5,16.2,13.4,27.9c-1.2,12.9-8.3,22.4-20.4,26.6
		c-19.1,6.6-32.8-6.8-37.8-21c-0.4-1.2-0.4-2.1,0.8-3C167.7,36.8,169.9,34.8,172.1,32.9c0.8,1.3-0.4,3.9,2.4,3.9
		c1.1,0,2.1-0.6,2.1-1.6c-0.1-2.8-2.5-1.8-4-2.1C172.4,33.1,172.2,33,172.1,32.9z M205.6,46c5.5,0.1,7.9-2.2,8-5.9
		c0.2-3.5-2-6-5.8-6.1c-3.9,0-6.4,2-6.5,5.9C201.2,43.7,203.2,45.8,205.6,46z M204.3,13.6c-0.1-3.3-0.5-5.7-4.2-5.8
		c-3.4-0.1-5.5,1.5-5.6,4.8c-0.1,3,1.7,5,4.8,5.2C202.3,18,204.3,16.6,204.3,13.6z M179.4,54.9c2.3-0.5,3.8-1.8,3.8-4.3
		c0-2.4-1.3-3.7-3.7-3.6c-2.7,0.1-4.4,1.6-4.1,4.3C175.5,53.5,177,54.8,179.4,54.9z M186.9,33.8c-2.2,0.1-3.8,1.2-3.7,3.9
		c0.1,2.6,1.8,3.9,4.2,3.7c2.4-0.2,3.9-1.7,3.7-4.3C191,34.7,189.5,33.7,186.9,33.8z"/>
	<path fill="#FDFDFD" d="M117.2,132.5c-0.4-2.9,0-5.5,3.7-5.6c2.4-0.1,3.6,1.5,3.5,3.9c-0.2,3.9-3.3,3.8-6.1,4.1
		C115.3,135.1,117.5,133.3,117.2,132.5z"/>
	<path fill="#FDFDFD" d="M169.6,111.6c2,0,3.3,0.9,3.4,2.8c0.2,2.1-0.9,3.5-3,3.7c-1.9,0.2-3.2-0.9-3.3-2.8
		C166.6,113.3,167.6,111.9,169.6,111.6z"/>
	<path fill="#795D40" d="M205.6,46c-2.4-0.2-4.4-2.4-4.3-6c0.1-4,2.6-6,6.5-5.9c3.8,0,6,2.6,5.8,6.1C213.5,43.8,211.1,46.1,205.6,46
		z"/>
	<path fill="#795D40" d="M204.3,13.6c0,3-2,4.4-5,4.2c-3.1-0.2-4.9-2.2-4.8-5.2c0.1-3.3,2.2-4.9,5.6-4.8
		C203.7,7.9,204.2,10.4,204.3,13.6z"/>
	<path fill="#795D40" d="M179.4,54.9c-2.4-0.1-3.9-1.3-4.1-3.5c-0.2-2.8,1.4-4.2,4.1-4.3c2.4-0.1,3.7,1.2,3.7,3.6
		C183.2,53.1,181.7,54.4,179.4,54.9z"/>
	<path fill="#795D40" d="M186.9,33.8c2.6-0.1,4.1,0.9,4.3,3.3c0.2,2.6-1.4,4.1-3.7,4.3c-2.4,0.2-4.1-1.1-4.2-3.7
		C183.1,35,184.7,33.9,186.9,33.8z"/>
	<path fill="#795D40" d="M172.1,32.9c0.1,0.1,0.3,0.2,0.4,0.2c1.5,0.4,3.9-0.7,4,2.1c0,1-1,1.6-2.1,1.6
		C171.7,36.8,172.9,34.3,172.1,32.9C172.1,32.9,172.1,32.9,172.1,32.9z"/>
</g>
</svg>
