<?xml version="1.0" encoding="utf-8"?>
<!-- Generator: Adobe Illustrator 18.0.0, SVG Export Plug-In . SVG Version: 6.00 Build 0)  -->
<!DOCTYPE svg PUBLIC "-//W3C//DTD SVG 1.1//EN" "http://www.w3.org/Graphics/SVG/1.1/DTD/svg11.dtd">
<svg version="1.1" id="Layer_1" xmlns="http://www.w3.org/2000/svg" xmlns:xlink="http://www.w3.org/1999/xlink" x="0px" y="0px"
	 viewBox="0 0 200 200" enable-background="new 0 0 200 200" xml:space="preserve">
<g>
	<path d="M117.6,144.2c-8.7,0-15.8-7.1-15.8-15.8v-15.7l-86.5-4.2c-8.4-0.4-15.1-7.4-15.1-15.8V34.5c0-8.7,7-15.7,15.6-15.8
		l26.6-0.3c0.1,0,0.1,0,0.2,0c8.7,0,15.7,7,15.8,15.6c0.1,8.7-6.9,15.9-15.6,16l-11,0.1v27.5l86.5,4.2c8.4,0.4,15.1,7.4,15.1,15.8
		v30.7C133.5,137.1,126.4,144.2,117.6,144.2z"/>
</g>
<g>
	<path d="M93.2,184c0,8.3,6.7,15,15,15h18.9c8.3,0,15-6.7,15-15v-50.2c0-8.3-6.7-15-15-15h-18.9c-8.3,0-15,6.7-15,15V184z"/>
</g>
<g>
	<path d="M35.3,52.8c0,8.3,6.7,15,15,15H185c8.3,0,15-6.7,15-15V15.6c0-8.3-6.7-15-15-15H50.3c-8.3,0-15,6.7-15,15V52.8z"/>
</g>
</svg>
