<?xml version="1.0" encoding="utf-8"?>
<!-- Generator: Adobe Illustrator 18.0.0, SVG Export Plug-In . SVG Version: 6.00 Build 0)  -->
<!DOCTYPE svg PUBLIC "-//W3C//DTD SVG 1.1//EN" "http://www.w3.org/Graphics/SVG/1.1/DTD/svg11.dtd">
<svg version="1.1" id="Layer_1" xmlns="http://www.w3.org/2000/svg" xmlns:xlink="http://www.w3.org/1999/xlink" x="0px" y="0px"
	 viewBox="0 0 200 200" enable-background="new 0 0 200 200" xml:space="preserve">
<ellipse fill="#010101" cx="28.8" cy="83.3" rx="7.2" ry="30.1"/>
<path fill="#010101" d="M199.7,195.3V75.6c0-37.4-9.8-75.5-28.4-75.5H28.8c-18.9,0-28.9,41.8-28.9,83s9.8,83,28.9,83h19.3v28.9l0,0
	l0,0v0.2c0,0.2,0,0.6,0,0.8s0,0.4,0.2,0.4c0,0.2,0,0.4,0.2,0.4c0.2,0.2,0.2,0.4,0.4,0.6v0.2l0,0c0.2,0.4,0.4,0.6,0.8,0.8l0.2,0.2
	c0.2,0.2,0.4,0.4,0.6,0.4c0.2,0,0.2,0.2,0.4,0.2c0.2,0.2,0.6,0.2,0.8,0.2c0.2,0,0.2,0,0.4,0c0.4,0,0.8,0.2,1.1,0.2l0,0l0,0
	c0.4,0,0.8,0,1.1-0.2c0.2,0,0.2,0,0.4,0c0.4-0.2,0.8-0.4,1.1-0.6l0,0l0,0l0,0l11.7-7.8l11.7,8c1.7,1.1,3.8,1.1,5.3,0l11.7-8l11.7,8
	c1.7,1.1,3.8,1.1,5.3,0l11.7-8l11.7,8c1.7,1.1,3.8,1.1,5.3,0l11.7-8l11.7,8c1.7,1.1,4,1.1,5.7-0.2l9.3-7.4l11.5,7.8l0,0l0,0h0.2
	c0.2,0.2,0.4,0.2,0.8,0.4c0.2,0,0.4,0,0.4,0.2c0.2,0,0.4,0.2,0.4,0.2c0.2,0,0.4,0,0.8,0h0.2l0,0c0.4,0,0.6,0,0.9-0.2
	c0.2,0,0.4,0,0.6-0.2c0.2,0,0.2,0,0.4-0.2c0.2,0,0.4-0.2,0.4-0.2c0.2,0,0.2-0.2,0.4-0.2c0.2-0.2,0.2-0.2,0.4-0.4
	c0.2,0,0.2-0.2,0.4-0.2c0.2-0.2,0.4-0.4,0.6-0.8l0,0v-0.2c0.2-0.2,0.2-0.4,0.4-0.6c0-0.2,0-0.4,0.2-0.4c0-0.2,0.2-0.4,0.2-0.4
	c0-0.2,0-0.6,0-0.8C199.7,195.5,199.7,195.3,199.7,195.3L199.7,195.3L199.7,195.3z M9.5,83.3C9.5,35.1,22,10,28.8,10
	s19.3,25.2,19.3,73.3s-12.5,73.3-19.3,73.3S9.5,131.6,9.5,83.3z M177.6,181.9l-9.3,7.4l-11.5-7.8c-1.7-1.1-3.8-1.1-5.3,0l-11.7,8
	l-11.7-8c-1.7-1.1-3.8-1.1-5.3,0l-11.7,8l-11.7-8c-1.7-1.1-3.8-1.1-5.3,0l-11.7,8l-11.7-8c-1.7-1.1-3.8-1.1-5.3,0l-7,4.7V79
	c0.8,0.4,1.5,0.8,2.5,0.8H68c2.6,0,4.7-2.1,4.7-4.7s-2.1-4.7-4.7-4.7h-7.8c-0.9,0-1.9,0.4-2.6,0.8c-1.1-25-6-48.4-14.4-61.1h128.4
	c7.6,0,17.8,23.1,18.7,60.9c-0.8-0.4-1.5-0.6-2.3-0.6h-7.2c-2.6,0-4.7,2.1-4.7,4.7s2.1,4.7,4.7,4.7h7.2c0.9,0,1.7-0.2,2.5-0.8v107.2
	l-7-4.7C181.4,180.5,179.1,180.5,177.6,181.9z"/>
<path fill="#010101" d="M163.6,70.1h-7.2c-2.6,0-4.7,2.1-4.7,4.7s2.1,4.7,4.7,4.7h7.2c2.6,0,4.7-2.1,4.7-4.7
	C168.5,72.2,166.3,70.1,163.6,70.1z"/>
<path fill="#010101" d="M91.4,70.1h-7.2c-2.6,0-4.7,2.1-4.7,4.7s2.1,4.7,4.7,4.7h7.2c2.6,0,4.7-2.1,4.7-4.7
	C96.3,72.2,94,70.1,91.4,70.1z"/>
<path fill="#010101" d="M139.6,70.1h-7.2c-2.6,0-4.7,2.1-4.7,4.7s2.1,4.7,4.7,4.7h7.2c2.6,0,4.7-2.1,4.7-4.7
	C144.5,72.2,142.3,70.1,139.6,70.1z"/>
<path fill="#010101" d="M115.6,70.1h-7.2c-2.6,0-4.7,2.1-4.7,4.7s2.1,4.7,4.7,4.7h7.2c2.6,0,4.7-2.1,4.7-4.7
	C120.3,72.2,118.3,70.1,115.6,70.1z"/>
</svg>
