<?xml version="1.0" encoding="utf-8"?>
<!-- Generator: Adobe Illustrator 18.0.0, SVG Export Plug-In . SVG Version: 6.00 Build 0)  -->
<!DOCTYPE svg PUBLIC "-//W3C//DTD SVG 1.1//EN" "http://www.w3.org/Graphics/SVG/1.1/DTD/svg11.dtd">
<svg version="1.1" id="Layer_1" xmlns="http://www.w3.org/2000/svg" xmlns:xlink="http://www.w3.org/1999/xlink" x="0px" y="0px"
	 viewBox="0 0 200 200" enable-background="new 0 0 200 200" xml:space="preserve">
<g>
	<circle cx="137.1" cy="24.6" r="24.7"/>
	<path d="M19,136h28.8c1.8,0,3.5-0.7,4.9-2.2c2-2.2,2.4-5.3,1.4-8l-9.8-49.7c-0.2-1.6-0.8-3.1-2-4.2c-1.4-1.6-3.1-2.2-4.9-2.2H19
		c-2.2,0-4.1,2-4.1,4.4v57.4C14.9,134,16.7,136,19,136z"/>
	<path d="M114,137.8H19c-2.2,0-4.1,1.8-4.1,4.1v16.9c0,2.2,1.8,4.1,4.1,4.1h4.5l0,0c5.7,0,10.4,4.5,10.8,10.2V199h37.1l12.4-28.6
		c17.1,0,31.2-13.3,32.6-30C116.7,139,115.5,137.8,114,137.8z"/>
	<path d="M184.3,66.2l-1.8-1.2c-0.6-0.4-1.6-0.2-2,0.4l-14.2,18.9c-1.8-0.8-4.1-0.8-6.1,0.2c-5.3,2.7-18.6,9.2-26.1,12.4
		c-2.7-5.5-6.3-19.8-8.8-33.7c-0.2-1.4-3.1-8.4-4.7-10.4c-5.3-6.5-14.9-7.8-21.4-2.4c-1.2,1-29.8,24.1-33.3,67.7
		c-0.4,4.1,1,8,3.5,10.8H59.1c-1.8,0-3.5,1.4-3.5,3.5c0,1.8,1.4,3.5,3.5,3.5h54.7c1.8,0,3.5-1.4,3.5-3.5c0-0.4,0-1-0.2-1.4
		c4.9,0.8,9.4,2.7,13.1,5.9c11.8,10.6,9.6,34.1,5.7,52c-1,4.9,2,9.8,6.9,11c0.6,0.2,1.4,0.2,2,0.2c4.3,0,8-2.9,9-7.1
		c7.3-33,3.7-56.5-11.4-69.8c-12.9-11.4-30.8-12.2-44.5-10.6c3.3-16.7,11.2-28.2,16.3-33.9c3.9,18.2,8.6,29,13.9,32
		c1.4,0.8,3.3,1.4,4.9,1.4c1,0,2-0.2,3.1-0.6c8-2.9,30-13.9,31-14.3c3.5-1.6,4.9-5.7,3.3-9.2l14.8-19.7
		C185.1,67.7,184.9,66.6,184.3,66.2z"/>
</g>
</svg>
