<?xml version="1.0" encoding="utf-8"?>
<!-- Generator: Adobe Illustrator 18.0.0, SVG Export Plug-In . SVG Version: 6.00 Build 0)  -->
<!DOCTYPE svg PUBLIC "-//W3C//DTD SVG 1.1//EN" "http://www.w3.org/Graphics/SVG/1.1/DTD/svg11.dtd">
<svg version="1.1" id="Layer_1" xmlns="http://www.w3.org/2000/svg" xmlns:xlink="http://www.w3.org/1999/xlink" x="0px" y="0px"
	 viewBox="0 0 200 200" enable-background="new 0 0 200 200" xml:space="preserve">
<ellipse fill="#010101" cx="100" cy="44.1" rx="43.3" ry="44.1"/>
<g>
	<path fill="#010101" d="M100,96.1c-28.6,0-51.9,8.9-51.9,19.9S71.4,136,100,136s51.9-8.9,51.9-19.9S128.8,96.1,100,96.1z
		 M100,121.1c-14.3,0-25.9-2.2-25.9-5.1c0-2.9,11.6-5.1,25.9-5.1s25.9,2.2,25.9,5.1C125.9,119,114.5,121.1,100,121.1z"/>
</g>
<path fill="#010101" d="M141.1,136.2c0,14-4.1,16.5-8.8,19.4c-4.7,2.9-10.6,6.3-10.6,18.7c0,10.3-9.2,18-21.5,18l0,0
	c-5.1,0-10-1.8-13.7-5.3c-3.7-3.4-5.7-8-5.7-12.7c0-12.5-6.5-16-11.8-18.9c-5.3-2.9-10-5.4-10-19.2l-8.6-4v4
	c0,17,6.5,21.9,14.3,26.1c4.7,2.6,7.4,4,7.4,11.8c0,6.9,2.9,13.4,8.2,18.3s12.3,7.6,19.8,7.6l0,0c17.1,0,30.4-11.4,30.4-26.1
	c0-8,2.5-9.4,6.7-12c7.1-4.2,12.9-9.1,12.9-26.1v-4L141.1,136.2z"/>
</svg>
