<?xml version="1.0" encoding="utf-8"?>
<!-- Generator: Adobe Illustrator 18.0.0, SVG Export Plug-In . SVG Version: 6.00 Build 0)  -->
<!DOCTYPE svg PUBLIC "-//W3C//DTD SVG 1.1//EN" "http://www.w3.org/Graphics/SVG/1.1/DTD/svg11.dtd">
<svg version="1.1" id="Layer_1" xmlns="http://www.w3.org/2000/svg" xmlns:xlink="http://www.w3.org/1999/xlink" x="0px" y="0px"
	 viewBox="0 0 200 200" enable-background="new 0 0 200 200" xml:space="preserve">
<g>
	<line x1="48.7" y1="153.6" x2="101.9" y2="153.6"/>
	<path d="M101.9,168.9H48.7c-8.5,0-15.4-6.9-15.4-15.4c0-8.5,6.9-15.4,15.4-15.4h53.2c8.5,0,15.4,6.9,15.4,15.4
		C117.3,162.1,110.4,168.9,101.9,168.9z"/>
</g>
<path d="M133.6,200c-1.9,0-3.9-0.4-5.8-1.1c-7.9-3.2-11.6-12.1-8.5-20l16.1-39.6l-40-10.5c-3.9-1-7.3-3.6-9.4-7.1
	c-2.1-3.5-2.6-7.7-1.6-11.7l12.8-47.8c2.2-8.2,10.6-13.1,18.8-10.9c8.2,2.2,13.1,10.6,10.9,18.8l-8.8,33l41.9,11
	c4.3,1.1,7.8,4,9.8,8c2,3.9,2.2,8.6,0.5,12.6l-22.6,55.7C145.4,196.4,139.6,200,133.6,200z"/>
<circle cx="120.4" cy="22.3" r="22.6"/>
</svg>
